<svg width="108" height="36" viewBox="0 0 108 36" fill="none" xmlns="http://www.w3.org/2000/svg">
<mask id="path-1-inside-1_699_998" fill="white">
<path d="M0 18C0 8.05888 8.05888 0 18 0H90C99.9411 0 108 8.05888 108 18C108 27.9411 99.9411 36 90 36H18C8.05888 36 0 27.9411 0 18Z"/>
</mask>
<path d="M0 18C0 8.05888 8.05888 0 18 0H90C99.9411 0 108 8.05888 108 18C108 27.9411 99.9411 36 90 36H18C8.05888 36 0 27.9411 0 18Z" fill="#50C878"/>
<path d="M0 0H108H0ZM108 18C108 29.0457 99.0457 38 88 38H20C8.9543 38 0 29.0457 0 18C0 26.8366 8.05887 34 18 34H90C99.9411 34 108 26.8366 108 18ZM0 36V0V36ZM108 0V36V0Z" fill="#228B22" mask="url(#path-1-inside-1_699_998)"/>
<path d="M24.324 22.5H22.364L17.926 15.794V22.5H15.966V12.714H17.926L22.364 19.434V12.714H24.324V22.5ZM33.4709 18.454C33.4709 18.734 33.4523 18.986 33.4149 19.21H27.7449C27.7916 19.77 27.9876 20.2087 28.3329 20.526C28.6783 20.8433 29.1029 21.002 29.6069 21.002C30.3349 21.002 30.8529 20.6893 31.1609 20.064H33.2749C33.0509 20.8107 32.6216 21.4267 31.9869 21.912C31.3523 22.388 30.5729 22.626 29.6489 22.626C28.9023 22.626 28.2303 22.4627 27.6329 22.136C27.0449 21.8 26.5829 21.3287 26.2469 20.722C25.9203 20.1153 25.7569 19.4153 25.7569 18.622C25.7569 17.8193 25.9203 17.1147 26.2469 16.508C26.5736 15.9013 27.0309 15.4347 27.6189 15.108C28.2069 14.7813 28.8836 14.618 29.6489 14.618C30.3863 14.618 31.0443 14.7767 31.6229 15.094C32.2109 15.4113 32.6636 15.864 32.9809 16.452C33.3076 17.0307 33.4709 17.698 33.4709 18.454ZM31.4409 17.894C31.4316 17.39 31.2496 16.9887 30.8949 16.69C30.5403 16.382 30.1063 16.228 29.5929 16.228C29.1076 16.228 28.6969 16.3773 28.3609 16.676C28.0343 16.9653 27.8336 17.3713 27.7589 17.894H31.4409ZM45.6535 14.744L43.3855 22.5H41.2715L39.8575 17.082L38.4435 22.5H36.3155L34.0335 14.744H36.0215L37.3935 20.652L38.8775 14.744H40.9495L42.4055 20.638L43.7775 14.744H45.6535ZM56.854 15.668C56.63 15.2573 56.322 14.9447 55.93 14.73C55.538 14.5153 55.0807 14.408 54.558 14.408C53.9793 14.408 53.466 14.5387 53.018 14.8C52.57 15.0613 52.22 15.4347 51.968 15.92C51.716 16.4053 51.59 16.9653 51.59 17.6C51.59 18.2533 51.716 18.8227 51.968 19.308C52.2293 19.7933 52.5887 20.1667 53.046 20.428C53.5033 20.6893 54.0353 20.82 54.642 20.82C55.3887 20.82 56 20.624 56.476 20.232C56.952 19.8307 57.2647 19.2753 57.414 18.566H54.054V17.068H59.346V18.776C59.2153 19.4573 58.9353 20.0873 58.506 20.666C58.0767 21.2447 57.5213 21.7113 56.84 22.066C56.168 22.4113 55.412 22.584 54.572 22.584C53.6293 22.584 52.7753 22.374 52.01 21.954C51.254 21.5247 50.6567 20.932 50.218 20.176C49.7887 19.42 49.574 18.5613 49.574 17.6C49.574 16.6387 49.7887 15.78 50.218 15.024C50.6567 14.2587 51.254 13.666 52.01 13.246C52.7753 12.8167 53.6247 12.602 54.558 12.602C55.6593 12.602 56.616 12.8727 57.428 13.414C58.24 13.946 58.8 14.6973 59.108 15.668H56.854ZM60.2921 18.594C60.2921 17.81 60.4461 17.1147 60.7541 16.508C61.0714 15.9013 61.4961 15.4347 62.0281 15.108C62.5694 14.7813 63.1714 14.618 63.8341 14.618C64.4127 14.618 64.9167 14.7347 65.3461 14.968C65.7847 15.2013 66.1347 15.4953 66.3961 15.85V14.744H68.3701V22.5H66.3961V21.366C66.1441 21.73 65.7941 22.0333 65.3461 22.276C64.9074 22.5093 64.3987 22.626 63.8201 22.626C63.1667 22.626 62.5694 22.458 62.0281 22.122C61.4961 21.786 61.0714 21.3147 60.7541 20.708C60.4461 20.092 60.2921 19.3873 60.2921 18.594ZM66.3961 18.622C66.3961 18.146 66.3027 17.74 66.1161 17.404C65.9294 17.0587 65.6774 16.7973 65.3601 16.62C65.0427 16.4333 64.7021 16.34 64.3381 16.34C63.9741 16.34 63.6381 16.4287 63.3301 16.606C63.0221 16.7833 62.7701 17.0447 62.5741 17.39C62.3874 17.726 62.2941 18.1273 62.2941 18.594C62.2941 19.0607 62.3874 19.4713 62.5741 19.826C62.7701 20.1713 63.0221 20.4373 63.3301 20.624C63.6474 20.8107 63.9834 20.904 64.3381 20.904C64.7021 20.904 65.0427 20.8153 65.3601 20.638C65.6774 20.4513 65.9294 20.19 66.1161 19.854C66.3027 19.5087 66.3961 19.098 66.3961 18.622ZM79.9164 14.632C80.8684 14.632 81.6337 14.926 82.2124 15.514C82.8004 16.0927 83.0944 16.9047 83.0944 17.95V22.5H81.1344V18.216C81.1344 17.6093 80.9804 17.1473 80.6724 16.83C80.3644 16.5033 79.9444 16.34 79.4124 16.34C78.8804 16.34 78.4557 16.5033 78.1384 16.83C77.8304 17.1473 77.6764 17.6093 77.6764 18.216V22.5H75.7164V18.216C75.7164 17.6093 75.5624 17.1473 75.2544 16.83C74.9464 16.5033 74.5264 16.34 73.9944 16.34C73.453 16.34 73.0237 16.5033 72.7064 16.83C72.3984 17.1473 72.2444 17.6093 72.2444 18.216V22.5H70.2844V14.744H72.2444V15.682C72.4964 15.3553 72.8184 15.0987 73.2104 14.912C73.6117 14.7253 74.0504 14.632 74.5264 14.632C75.133 14.632 75.6744 14.7627 76.1504 15.024C76.6264 15.276 76.995 15.64 77.2564 16.116C77.5084 15.668 77.8724 15.3087 78.3484 15.038C78.8337 14.7673 79.3564 14.632 79.9164 14.632ZM92.1643 18.454C92.1643 18.734 92.1456 18.986 92.1083 19.21H86.4383C86.4849 19.77 86.6809 20.2087 87.0263 20.526C87.3716 20.8433 87.7963 21.002 88.3003 21.002C89.0283 21.002 89.5463 20.6893 89.8543 20.064H91.9683C91.7443 20.8107 91.3149 21.4267 90.6803 21.912C90.0456 22.388 89.2663 22.626 88.3423 22.626C87.5956 22.626 86.9236 22.4627 86.3263 22.136C85.7383 21.8 85.2763 21.3287 84.9403 20.722C84.6136 20.1153 84.4503 19.4153 84.4503 18.622C84.4503 17.8193 84.6136 17.1147 84.9403 16.508C85.2669 15.9013 85.7243 15.4347 86.3123 15.108C86.9003 14.7813 87.5769 14.618 88.3423 14.618C89.0796 14.618 89.7376 14.7767 90.3163 15.094C90.9043 15.4113 91.3569 15.864 91.6743 16.452C92.0009 17.0307 92.1643 17.698 92.1643 18.454ZM90.1343 17.894C90.1249 17.39 89.9429 16.9887 89.5883 16.69C89.2336 16.382 88.7996 16.228 88.2863 16.228C87.8009 16.228 87.3903 16.3773 87.0543 16.676C86.7276 16.9653 86.5269 17.3713 86.4523 17.894H90.1343Z" fill="white"/>
</svg>
