<svg width="68" height="36" viewBox="0 0 68 36" fill="none" xmlns="http://www.w3.org/2000/svg">
<mask id="path-1-inside-1_699_1000" fill="white">
<path d="M0 18C0 8.05888 8.05888 0 18 0H50C59.9411 0 68 8.05888 68 18C68 27.9411 59.9411 36 50 36H18C8.05888 36 0 27.9411 0 18Z"/>
</mask>
<path d="M0 18C0 8.05888 8.05888 0 18 0H50C59.9411 0 68 8.05888 68 18C68 27.9411 59.9411 36 50 36H18C8.05888 36 0 27.9411 0 18Z" fill="#50C878"/>
<path d="M0 0H68H0ZM68 18C68 29.0457 59.0457 38 48 38H20C8.9543 38 0 29.0457 0 18C0 26.8366 8.05887 34 18 34H50C59.9411 34 68 26.8366 68 18ZM0 36V0V36ZM68 0V36V0Z" fill="#228B22" mask="url(#path-1-inside-1_699_1000)"/>
<path d="M17.926 20.946H21.146V22.5H15.966V12.728H17.926V20.946ZM25.8358 22.626C25.0891 22.626 24.4171 22.4627 23.8198 22.136C23.2224 21.8 22.7511 21.3287 22.4058 20.722C22.0698 20.1153 21.9018 19.4153 21.9018 18.622C21.9018 17.8287 22.0744 17.1287 22.4198 16.522C22.7744 15.9153 23.2551 15.4487 23.8618 15.122C24.4684 14.786 25.1451 14.618 25.8918 14.618C26.6384 14.618 27.3151 14.786 27.9218 15.122C28.5284 15.4487 29.0044 15.9153 29.3498 16.522C29.7044 17.1287 29.8818 17.8287 29.8818 18.622C29.8818 19.4153 29.6998 20.1153 29.3358 20.722C28.9811 21.3287 28.4958 21.8 27.8798 22.136C27.2731 22.4627 26.5918 22.626 25.8358 22.626ZM25.8358 20.918C26.1904 20.918 26.5218 20.834 26.8298 20.666C27.1471 20.4887 27.3991 20.2273 27.5858 19.882C27.7724 19.5367 27.8658 19.1167 27.8658 18.622C27.8658 17.8847 27.6698 17.32 27.2778 16.928C26.8951 16.5267 26.4238 16.326 25.8638 16.326C25.3038 16.326 24.8324 16.5267 24.4498 16.928C24.0764 17.32 23.8898 17.8847 23.8898 18.622C23.8898 19.3593 24.0718 19.9287 24.4358 20.33C24.8091 20.722 25.2758 20.918 25.8358 20.918ZM34.3575 14.618C34.9362 14.618 35.4448 14.7347 35.8835 14.968C36.3222 15.192 36.6675 15.486 36.9195 15.85V14.744H38.8935V22.556C38.8935 23.2747 38.7488 23.914 38.4595 24.474C38.1702 25.0433 37.7362 25.4913 37.1575 25.818C36.5788 26.154 35.8788 26.322 35.0575 26.322C33.9562 26.322 33.0508 26.0653 32.3415 25.552C31.6415 25.0387 31.2448 24.3387 31.1515 23.452H33.0975C33.2002 23.8067 33.4195 24.0867 33.7555 24.292C34.1008 24.5067 34.5162 24.614 35.0015 24.614C35.5708 24.614 36.0328 24.4413 36.3875 24.096C36.7422 23.76 36.9195 23.2467 36.9195 22.556V21.352C36.6675 21.716 36.3175 22.0193 35.8695 22.262C35.4308 22.5047 34.9268 22.626 34.3575 22.626C33.7042 22.626 33.1068 22.458 32.5655 22.122C32.0242 21.786 31.5948 21.3147 31.2775 20.708C30.9695 20.092 30.8155 19.3873 30.8155 18.594C30.8155 17.81 30.9695 17.1147 31.2775 16.508C31.5948 15.9013 32.0195 15.4347 32.5515 15.108C33.0928 14.7813 33.6948 14.618 34.3575 14.618ZM36.9195 18.622C36.9195 18.146 36.8262 17.74 36.6395 17.404C36.4528 17.0587 36.2008 16.7973 35.8835 16.62C35.5662 16.4333 35.2255 16.34 34.8615 16.34C34.4975 16.34 34.1615 16.4287 33.8535 16.606C33.5455 16.7833 33.2935 17.0447 33.0975 17.39C32.9108 17.726 32.8175 18.1273 32.8175 18.594C32.8175 19.0607 32.9108 19.4713 33.0975 19.826C33.2935 20.1713 33.5455 20.4373 33.8535 20.624C34.1708 20.8107 34.5068 20.904 34.8615 20.904C35.2255 20.904 35.5662 20.8153 35.8835 20.638C36.2008 20.4513 36.4528 20.19 36.6395 19.854C36.8262 19.5087 36.9195 19.098 36.9195 18.622ZM41.8018 13.82C41.4565 13.82 41.1671 13.7127 40.9338 13.498C40.7098 13.274 40.5978 12.9987 40.5978 12.672C40.5978 12.3453 40.7098 12.0747 40.9338 11.86C41.1671 11.636 41.4565 11.524 41.8018 11.524C42.1471 11.524 42.4318 11.636 42.6558 11.86C42.8891 12.0747 43.0058 12.3453 43.0058 12.672C43.0058 12.9987 42.8891 13.274 42.6558 13.498C42.4318 13.7127 42.1471 13.82 41.8018 13.82ZM42.7678 14.744V22.5H40.8078V14.744H42.7678ZM49.0023 14.632C49.9263 14.632 50.6729 14.926 51.2423 15.514C51.8116 16.0927 52.0963 16.9047 52.0963 17.95V22.5H50.1363V18.216C50.1363 17.6 49.9823 17.1287 49.6743 16.802C49.3663 16.466 48.9463 16.298 48.4143 16.298C47.8729 16.298 47.4436 16.466 47.1263 16.802C46.8183 17.1287 46.6643 17.6 46.6643 18.216V22.5H44.7043V14.744H46.6643V15.71C46.9256 15.374 47.2569 15.1127 47.6583 14.926C48.0689 14.73 48.5169 14.632 49.0023 14.632Z" fill="white"/>
</svg>
