<svg width="25" height="25" viewBox="0 0 25 25" fill="none" xmlns="http://www.w3.org/2000/svg">
<path d="M6.20549 9.27429L14.7655 4.99429C20.5155 2.11429 22.8755 4.47429 19.9955 10.2243L19.1255 11.9643C18.8755 12.4743 18.8755 13.0643 19.1255 13.5743L19.9955 15.3043C22.8755 21.0543 20.5255 23.4143 14.7655 20.5343L6.20549 16.2543C2.36549 14.3343 2.36549 11.1943 6.20549 9.27429ZM9.43549 13.5143H14.8355C15.2455 13.5143 15.5855 13.1743 15.5855 12.7643C15.5855 12.3543 15.2455 12.0143 14.8355 12.0143H9.43549C9.02549 12.0143 8.68549 12.3543 8.68549 12.7643C8.68549 13.1743 9.02549 13.5143 9.43549 13.5143Z" fill="#F8F8FF"/>
</svg>
